<svg width="106" height="60" viewBox="0 0 106 60" fill="none" xmlns="http://www.w3.org/2000/svg">
<path fill-rule="evenodd" clip-rule="evenodd" d="M50.1136 2.93452H49.977C49.7671 2.92181 49.5571 2.91672 49.3471 2.91163H49.3471H49.3269H48.8918C48.4946 2.91163 48.0898 2.92181 47.6876 2.94215C47.6573 2.93994 47.6269 2.93994 47.5966 2.94215C43.9522 3.14863 40.3817 4.05951 37.0805 5.62492L36.6479 5.83344V27.9746L37.6598 27.6313C38.5477 27.3261 39.4938 27.0515 40.4728 26.7972C43.1193 26.1178 45.8367 25.7567 48.568 25.7216V28.6306C48.2062 28.6332 47.8546 28.6434 47.503 28.6612H47.4195C45.3175 28.7765 43.2317 29.0967 41.1913 29.6173C38.6072 30.2643 36.1143 31.2357 33.7716 32.5086V4.11189C36.2047 2.69275 38.8253 1.62687 41.5556 0.945963C43.9527 0.327052 46.4169 0.00930695 48.8918 0H49.3193C49.8303 0.0127146 50.3287 0.0356008 50.7967 0.0712015C52.0297 0.157776 53.2528 0.352628 54.4521 0.653528V3.51685C53.2874 3.24551 52.1032 3.06695 50.9105 2.98284C50.8863 2.98079 50.8621 2.97872 50.8379 2.97666C50.5911 2.95561 50.344 2.93452 50.1136 2.93452ZM55.1528 5.86138C55.7877 5.9097 56.4455 5.93259 57.1108 5.93259C59.7125 5.92307 62.3031 5.59083 64.8239 4.94339C67.4068 4.29396 69.8986 3.32178 72.2411 2.04956V29.9402C69.8067 31.3585 67.1853 32.4243 64.4546 33.1061C62.0571 33.7227 59.5931 34.0395 57.1184 34.0496C55.2433 34.0647 53.3737 33.8443 51.553 33.3935V5.32229C51.983 5.42146 52.4257 5.51301 52.876 5.58929C53.6147 5.7139 54.3939 5.80544 55.1528 5.86138ZM69.3471 6.07753L68.3352 6.41828C67.4042 6.73106 66.4657 7.01078 65.5221 7.25998C62.7749 7.96596 59.9514 8.3281 57.1158 8.33818C56.4556 8.33818 55.8485 8.32038 55.2616 8.28224L54.4546 8.22883V28.3178V31.0057L55.1477 31.0667C55.7903 31.1227 56.4531 31.1506 57.1209 31.1506C59.3544 31.1412 61.5781 30.8533 63.7412 30.2937C65.5223 29.8469 67.2552 29.2243 68.9145 28.4348L69.3471 28.2263V6.07753Z" fill="#AFB1B8"/>
<path d="M35.7371 42.2124C35.5917 42.0615 35.4163 41.943 35.2224 41.8646C35.0284 41.7862 34.8203 41.7496 34.6114 41.7572C34.3888 41.7542 34.1678 41.7957 33.9613 41.8793C33.7719 41.9547 33.5998 42.068 33.4553 42.2124C33.3125 42.3572 33.2013 42.5304 33.129 42.721C33.0497 42.9207 33.0101 43.1341 33.0126 43.3491V47.1431C33.0036 47.4104 33.0546 47.6764 33.1619 47.9212C33.2514 48.1156 33.3807 48.2889 33.5413 48.4298C33.693 48.5575 33.871 48.6495 34.0625 48.6994C34.2469 48.7512 34.4376 48.7777 34.6291 48.7782C34.8404 48.7803 35.0495 48.7351 35.2413 48.646C35.4309 48.563 35.6028 48.4438 35.7473 48.295C35.8881 48.1476 36.0005 47.9752 36.0786 47.7864C36.1597 47.5951 36.201 47.3892 36.2001 47.1812V46.7566H35.2084V47.0948C35.2114 47.2103 35.1916 47.3252 35.1502 47.433C35.1179 47.5137 35.0688 47.5866 35.006 47.6466C34.9446 47.6962 34.8742 47.7334 34.7986 47.7559C34.7316 47.7782 34.6617 47.7902 34.5912 47.7915C34.5026 47.8018 34.413 47.7885 34.3312 47.7527C34.2495 47.717 34.1786 47.6602 34.1257 47.5881C34.0322 47.4356 33.9864 47.2585 33.9942 47.0795V43.5423C33.988 43.3462 34.0297 43.1515 34.1156 42.9753C34.1671 42.8952 34.2399 42.8313 34.3258 42.7908C34.4117 42.7503 34.5071 42.7349 34.6013 42.7464C34.6868 42.7434 34.7717 42.7612 34.8488 42.7984C34.9259 42.8356 34.9929 42.8911 35.044 42.96C35.155 43.1057 35.213 43.2852 35.2084 43.4686V43.7966H36.19V43.4101C36.1919 43.1831 36.1507 42.9578 36.0685 42.7464C35.9953 42.5476 35.8825 42.3659 35.7371 42.2124V42.2124Z" fill="#AFB1B8"/>
<path d="M41.6289 42.1691C41.3127 41.9021 40.9136 41.7546 40.5007 41.7521C40.2987 41.7529 40.0984 41.7891 39.9087 41.8589C39.7161 41.9279 39.5384 42.0332 39.3851 42.1691C39.2208 42.3168 39.0897 42.498 39.0005 42.7006C38.9006 42.9323 38.8515 43.183 38.8563 43.4355V47.0744C38.8495 47.3304 38.8987 47.5847 39.0005 47.8195C39.0903 48.0151 39.2215 48.1887 39.3851 48.328C39.5367 48.4688 39.7147 48.5777 39.9087 48.6485C40.0984 48.7183 40.2987 48.7544 40.5007 48.7553C40.7027 48.7549 40.9031 48.7187 41.0926 48.6485C41.29 48.5767 41.4719 48.468 41.6289 48.328C41.7871 48.1861 41.9145 48.013 42.0033 47.8195C42.1051 47.5847 42.1544 47.3304 42.1475 47.0744V43.4355C42.1524 43.183 42.1032 42.9323 42.0033 42.7006C41.9151 42.5001 41.7878 42.3194 41.6289 42.1691V42.1691ZM41.166 47.0744C41.1743 47.1714 41.1609 47.269 41.1268 47.3601C41.0926 47.4512 41.0386 47.5334 40.9687 47.6008C40.8377 47.7106 40.6725 47.7708 40.5019 47.7708C40.3313 47.7708 40.1662 47.7106 40.0352 47.6008C39.9652 47.5334 39.9112 47.4512 39.8771 47.3601C39.8429 47.269 39.8295 47.1714 39.8379 47.0744V43.4355C39.8295 43.3385 39.8429 43.2409 39.8771 43.1498C39.9112 43.0587 39.9652 42.9764 40.0352 42.9091C40.1662 42.7993 40.3313 42.7391 40.5019 42.7391C40.6725 42.7391 40.8377 42.7993 40.9687 42.9091C41.0386 42.9764 41.0926 43.0587 41.1268 43.1498C41.1609 43.2409 41.1743 43.3385 41.166 43.4355V47.0744Z" fill="#AFB1B8"/>
<path d="M49.3673 48.6994V41.8107H48.4136L47.1614 45.4572H47.1437L45.8813 41.8107H44.9377V48.6994H45.9218V44.5087H45.9395L46.9033 47.4712H47.3941L48.3655 44.5087H48.3832V48.6994H49.3673Z" fill="#AFB1B8"/>
<path d="M54.9581 42.2937C54.8065 42.1237 54.6153 41.9943 54.4015 41.9173C54.1712 41.8424 53.9302 41.8063 53.6881 41.8105H52.226V48.6993H53.2075V46.0089H53.7134C54.0197 46.0228 54.3244 45.958 54.5988 45.8207C54.822 45.6968 55.0081 45.515 55.1377 45.2943C55.2512 45.1111 55.3277 44.9071 55.3628 44.6942C55.4014 44.435 55.4192 44.173 55.4159 43.911C55.4255 43.5802 55.3932 43.2495 55.3198 42.9269C55.2543 42.6885 55.1299 42.4706 54.9581 42.2937V42.2937ZM54.4521 44.3941C54.4479 44.5188 54.4168 44.6412 54.361 44.7527C54.3049 44.8586 54.2162 44.9434 54.1081 44.9942C53.9627 45.0593 53.8041 45.0889 53.6451 45.0807H53.1974V42.7387H53.7033C53.8557 42.7312 54.0075 42.7609 54.146 42.8251C54.2475 42.8834 54.3281 42.9724 54.3762 43.0794C54.4299 43.2004 54.4591 43.331 54.4622 43.4634C54.4622 43.6084 54.4622 43.7609 54.4622 43.9211C54.4622 44.0813 54.4723 44.2466 54.4622 44.3941H54.4521Z" fill="#AFB1B8"/>
<path d="M59.6077 41.8107H58.8032L57.2854 48.6994H58.2669L58.5553 47.2194H59.8935L60.1819 48.6994H61.1635L59.6077 41.8107ZM58.702 46.2811L59.1852 43.784H59.2029L59.6836 46.2811H58.702Z" fill="#AFB1B8"/>
<path d="M65.9497 45.9607H65.932L64.4496 41.8107H63.506V48.6994H64.4875V44.557H64.5078L66.0079 48.6994H66.9312V41.8107H65.9497V45.9607Z" fill="#AFB1B8"/>
<path d="M71.9476 41.8107L71.1583 44.5494H71.1381L70.3488 41.8107H69.3091L70.6574 45.7878V48.6994H71.639V45.7878L72.9873 41.8107H71.9476Z" fill="#AFB1B8"/>
<path d="M33 50.6445H33.4731V51.9719H33.7943V50.6445H34.2649V50.3724H33V50.6445Z" fill="#AFB1B8"/>
<path d="M36.9767 50.3724L36.3569 51.9719H36.6984L36.83 51.6083H37.4675L37.6041 51.9719H37.9532L37.3182 50.3724H36.9767ZM36.9261 51.3387L37.1437 50.7462L37.3612 51.3387H36.9261Z" fill="#AFB1B8"/>
<path d="M40.9079 51.3821H41.2773V51.5881C41.1694 51.6746 41.0358 51.722 40.8978 51.7229C40.8333 51.7265 40.7689 51.7145 40.7099 51.688C40.6509 51.6614 40.5991 51.6211 40.5588 51.5703C40.474 51.4485 40.4322 51.3017 40.4399 51.1533C40.4399 50.7973 40.5942 50.6193 40.9003 50.6193C40.9809 50.6112 41.0617 50.6325 41.128 50.6791C41.1944 50.7257 41.2419 50.7947 41.2621 50.8735L41.5783 50.8125C41.51 50.4997 41.2849 50.3421 40.9003 50.3421C40.6947 50.3366 40.4947 50.4103 40.3413 50.5481C40.2607 50.6276 40.1983 50.7239 40.1586 50.8302C40.1188 50.9365 40.1026 51.0502 40.1111 51.1634C40.1017 51.3823 40.1749 51.5966 40.316 51.7636C40.3943 51.8444 40.4892 51.9071 40.594 51.9475C40.6988 51.9879 40.8111 52.0049 40.9231 51.9975C41.1734 52.0045 41.4165 51.9133 41.6011 51.7432V51.1126H40.9079V51.3821Z" fill="#AFB1B8"/>
<path d="M44.9226 50.3724H44.5988V51.9719H45.7194V51.6998H44.9226V50.3724Z" fill="#AFB1B8"/>
<path d="M48.3175 50.3724H47.9937V51.9719H48.3175V50.3724Z" fill="#AFB1B8"/>
<path d="M51.6365 51.4405L50.9813 50.3724H50.6676V51.9719H50.9686V50.9268L51.6112 51.9719H51.9325V50.3724H51.6365V51.4405Z" fill="#AFB1B8"/>
<path d="M54.6368 51.2675H55.4337V50.9954H54.6368V50.6445H55.4944V50.3724H54.313V51.9719H55.5273V51.6998H54.6368V51.2675Z" fill="#AFB1B8"/>
<path d="M61.9122 51.0031H61.2823V50.3724H60.9611V51.9719H61.2823V51.2726H61.9122V51.9719H62.2335V50.3724H61.9122V51.0031Z" fill="#AFB1B8"/>
<path d="M64.9302 51.2675H65.7296V50.9954H64.9302V50.6445H65.7903V50.3724H64.6089V51.9719H65.8206V51.6998H64.9302V51.2675Z" fill="#AFB1B8"/>
<path d="M69.0233 51.2676C69.3015 51.2244 69.4432 51.0769 69.4432 50.8226C69.4513 50.7546 69.441 50.6856 69.4134 50.623C69.3858 50.5603 69.3419 50.5063 69.2863 50.4666C69.1415 50.3938 68.9799 50.3614 68.8183 50.3725H68.1404V51.972H68.4617V51.3032H68.5249C68.5934 51.299 68.6619 51.3112 68.7247 51.3388C68.7717 51.3678 68.8108 51.4079 68.8386 51.4558L69.1877 51.9644H69.5722L69.3774 51.6516C69.2913 51.4972 69.1699 51.3656 69.0233 51.2676V51.2676ZM68.6994 51.0464H68.4617V50.6446H68.7146C68.8248 50.6357 68.9357 50.6486 69.041 50.6827C69.0644 50.7034 69.0828 50.7291 69.095 50.7579C69.1072 50.7867 69.1127 50.8179 69.1113 50.8492C69.1098 50.8804 69.1014 50.911 69.0866 50.9385C69.0718 50.966 69.051 50.9899 69.0258 51.0082C68.9202 51.0406 68.8096 51.0535 68.6994 51.0464V51.0464Z" fill="#AFB1B8"/>
<path d="M72.1096 51.2675H72.9064V50.9954H72.1096V50.6445H72.9697V50.3724H71.7858V51.9719H73V51.6998H72.1096V51.2675Z" fill="#AFB1B8"/>
</svg>
